<?xml version="1.0" encoding="utf-8"?>
<!-- Generator: Adobe Illustrator 16.0.0, SVG Export Plug-In . SVG Version: 6.00 Build 0)  -->
<!DOCTYPE svg PUBLIC "-//W3C//DTD SVG 1.1//EN" "http://www.w3.org/Graphics/SVG/1.1/DTD/svg11.dtd">
<svg version="1.1" id="Layer_1" xmlns="http://www.w3.org/2000/svg" xmlns:xlink="http://www.w3.org/1999/xlink" x="0px" y="0px"
	 width="1280px" height="254.598px" viewBox="0 0 1280 254.598" enable-background="new 0 0 1280 254.598" xml:space="preserve">
<g>
	<g>
		<g>
			<path d="M1220.798,210.637h-150.249c-9.507,0-12.957-7.749-12.957-12.958V43.928c0-9.506,7.748-12.957,12.957-12.957h150.249
				c9.506,0,12.957,7.749,12.957,12.957V197.68C1233.755,207.187,1226.006,210.637,1220.798,210.637z M1070.549,37.419
				c-1.509,0.024-6.51,0.564-6.51,6.509V197.68c0.024,1.509,0.564,6.51,6.51,6.51h150.232c1.541-0.026,6.525-0.574,6.525-6.51
				V43.928c-0.024-1.508-0.563-6.509-6.509-6.509H1070.549z"/>
		</g>
	</g>
	<path d="M1196.646,175.273c0,2.396-2.056,4.448-4.453,4.448c-2.398,0-4.45-2.052-4.45-4.448v-26.715l-29.793-30.138l-48.463,59.59
		c-0.686,0.858-1.884,1.711-3.426,1.711c-2.396,0-4.623-2.226-4.623-4.622c0-1.369,0.516-2.223,1.372-3.25l48.798-59.762
		l-45.715-46.063c-0.86-0.857-1.369-1.882-1.369-3.081c0-2.229,2.223-4.455,4.448-4.455c1.369,0,2.396,0.686,3.082,1.369
		l75.688,78.083V62.943c0-2.403,2.052-4.455,4.45-4.455c2.397,0,4.453,2.051,4.453,4.455V175.273z"/>
	<path d="M971.599,181.906c23.112,0,39.726-13.357,39.726-32.705v-0.344c0-17.463-11.646-27.397-39.388-33.047
		c-28.422-5.821-34.927-13.527-34.927-26.2v-0.34c0-12.502,11.645-22.604,29.279-22.604c12.158,0,22.605,3.25,33.047,11.3
		c0.858,0.683,1.883,1.027,2.913,1.027c2.398,0,4.453-2.055,4.453-4.454c0-1.711-1.024-2.909-1.886-3.595
		c-10.959-8.217-22.088-12.329-38.187-12.329c-22.261,0-38.527,13.7-38.527,31.507v0.346c0,18.151,11.648,27.909,40.414,33.73
		c27.225,5.481,33.9,12.842,33.9,25.515v0.342c0,13.7-12.325,23.802-30.307,23.802c-16.438,0-28.424-4.793-40.41-15.582
		c-0.687-0.512-1.714-1.027-2.912-1.027c-2.396,0-4.452,2.055-4.452,4.452c0,1.542,0.854,2.74,1.712,3.423
		C939.576,176.253,953.62,181.906,971.599,181.906 M854.476,176.428c0,2.396,2.056,4.451,4.453,4.451c2.396,0,4.45-2.055,4.45-4.451
		V64.098c0-2.4-2.055-4.455-4.45-4.455c-2.397,0-4.453,2.055-4.453,4.455V176.428z M683.755,176.597
		c0,2.397,1.881,4.281,4.278,4.281c2.396,0,4.284-1.884,4.284-4.281V73.339l82.362,104.457c1.371,1.714,2.74,2.913,4.45,2.913h0.687
		c2.053,0,3.599-1.714,3.599-3.769V63.924c0-2.397-1.887-4.281-4.285-4.281c-2.396,0-4.277,1.884-4.277,4.281v101.028
		L694.025,62.384c-1.199-1.543-2.568-2.57-4.449-2.57h-1.368c-2.398,0-4.453,2.055-4.453,4.455V176.597z M535.636,138.583
		l31.68-69.35l31.505,69.35H535.636z M509.436,177.113c0,2.051,1.884,3.766,4.11,3.766c2.053,0,3.423-1.198,4.281-3.254
		l14.042-30.992h70.718l14.042,30.819c0.856,1.887,2.399,3.426,4.452,3.426c2.396,0,4.281-1.884,4.281-4.11
		c0-0.853-0.171-1.714-0.687-2.741L573.651,63.409c-1.199-2.567-2.913-4.278-5.996-4.278h-0.339c-3.084,0-4.798,1.71-5.997,4.278
		l-51.197,110.964C509.606,175.4,509.436,176.428,509.436,177.113 M367.825,176.428c0,2.396,2.057,4.451,4.455,4.451
		c2.396,0,4.449-2.055,4.449-4.451v-26.715l29.797-30.137l48.458,59.588c0.686,0.858,1.884,1.714,3.425,1.714
		c2.399,0,4.624-2.229,4.624-4.625c0-1.368-0.516-2.226-1.371-3.25l-48.799-59.762l45.719-46.063c0.855-0.857,1.37-1.881,1.37-3.08
		c0-2.229-2.228-4.455-4.454-4.455c-1.369,0-2.397,0.687-3.083,1.369l-75.686,78.086V64.098c0-2.4-2.053-4.455-4.449-4.455
		c-2.397,0-4.455,2.055-4.455,4.455V176.428z M226.726,180.194h78.257c2.224,0,4.11-1.882,4.11-4.112
		c0-2.225-1.886-4.107-4.11-4.107h-73.804v-48.117h65.242c2.226,0,4.107-1.887,4.107-4.11c0-2.226-1.881-4.11-4.107-4.11h-65.242
		V68.546h72.946c2.228,0,4.11-1.88,4.11-4.109c0-2.226-1.882-4.107-4.11-4.107h-77.399c-2.396,0-4.451,2.055-4.451,4.452v110.959
		C222.275,178.137,224.329,180.194,226.726,180.194 M46.245,176.597c0,2.397,1.884,4.281,4.283,4.281
		c2.396,0,4.278-1.884,4.278-4.281V76.081l44.01,64.045c1.026,1.541,2.224,2.223,3.767,2.223c1.538,0,2.737-0.682,3.768-2.223
		l44.005-64.045v100.347c0,2.396,2.053,4.451,4.45,4.451c2.4,0,4.454-2.055,4.454-4.451V64.269c0-2.4-2.053-4.455-4.454-4.455
		h-0.854c-1.881,0-3.423,1.027-4.451,2.57l-46.75,68.835L56.004,62.384c-1.198-1.543-2.567-2.57-4.45-2.57h-0.858
		c-2.397,0-4.45,2.055-4.45,4.455V176.597z"/>
</g>
</svg>
